<svg width="482" height="563" viewBox="0 0 482 563" fill="none" xmlns="http://www.w3.org/2000/svg">
<g style="mix-blend-mode:screen" clip-path="url(#clip0)">
<path d="M310.916 288.965C319.27 284.108 332.868 284.108 341.221 288.965L475.068 366.184C483.421 371.04 483.421 378.908 475.068 383.667L172.602 558.892C164.249 563.748 150.65 563.748 142.297 558.892L8.4505 481.673C0.0972304 476.816 0.0972304 468.948 8.4505 464.189L310.916 288.965Z" fill="#2580D3"/>
<path d="M310.916 239.137C319.27 234.28 332.868 234.28 341.221 239.137L475.068 316.356C483.421 321.212 483.421 329.08 475.068 333.839L172.602 509.064C164.249 513.92 150.65 513.92 142.297 509.064L8.4505 431.747C0.0972304 426.891 0.0972304 419.023 8.4505 414.264L310.916 239.137Z" fill="#5DA5FD"/>
<path d="M8.45027 431.747L142.2 508.966C150.553 513.823 164.151 513.823 172.505 508.966L474.97 333.839C479.05 331.508 481.09 328.4 481.187 325.389V346.175C481.187 349.38 479.147 352.488 474.97 354.917L172.602 530.044C164.248 534.9 150.65 534.9 142.297 530.044L8.45027 452.825C4.27364 450.397 2.23389 447.288 2.23389 444.083V423.103C2.23389 426.211 4.27364 429.416 8.45027 431.747Z" fill="#034AA2"/>
<path d="M21.563 406.688L185.714 501.39L473.805 334.616L309.654 239.914L21.563 406.688Z" fill="url(#paint0_radial)"/>
<path d="M182.801 499.739L185.715 501.39L473.805 334.616L470.891 332.965L182.801 499.739Z" fill="url(#paint1_linear)"/>
<path d="M185.714 514.114L473.805 347.34V334.616L185.714 501.39V514.114Z" fill="url(#paint2_linear)"/>
<path opacity="0.3" d="M351.031 183.675V233.212C311.305 211.163 255.649 204.266 206.015 212.62V163.083C255.649 154.73 311.305 161.626 351.031 183.675Z" fill="#51FFFF"/>
<path d="M95.0912 497.991L56.3359 475.65V466.132L95.0912 488.472V497.991Z" fill="#0A208F"/>
<path opacity="0.1" d="M326.457 319.95C367.641 343.747 367.641 382.308 326.457 406.105C285.274 429.902 218.448 429.902 177.264 406.105C136.081 382.308 136.081 343.747 177.264 319.95C218.545 296.25 285.274 296.25 326.457 319.95Z" fill="#FFDA44"/>
<path opacity="0.3" d="M310.431 329.274C342.775 347.923 342.775 378.131 310.431 396.78C278.086 415.429 225.732 415.429 193.388 396.78C161.043 378.131 161.043 347.923 193.388 329.274C225.732 310.625 278.086 310.625 310.431 329.274Z" fill="#51FFFF"/>
<path opacity="0.5" d="M176.778 104.804C174.641 104.804 172.893 106.553 172.893 108.69V244.964H180.664V108.69C180.761 106.553 179.012 104.804 176.778 104.804Z" fill="url(#paint3_linear)"/>
<path opacity="0.5" d="M334.616 109.661C331.508 109.661 328.886 112.186 328.886 115.392V315.287H340.347V115.392C340.347 112.283 337.822 109.661 334.616 109.661Z" fill="url(#paint4_linear)"/>
<path opacity="0.7" d="M310.236 170.951C308.585 170.951 307.225 172.31 307.225 173.962V347.438H313.247V173.962C313.247 172.31 311.887 170.951 310.236 170.951Z" fill="url(#paint5_linear)"/>
<path opacity="0.7" d="M160.752 13.0155C159.101 13.0155 157.741 14.3753 157.741 16.0266V189.503H163.763V16.0266C163.763 14.3753 162.403 13.0155 160.752 13.0155Z" fill="url(#paint6_linear)"/>
<path opacity="0.7" d="M296.541 6.79919C295.667 6.79919 294.987 7.47911 294.987 8.35329V184.355H298.095V8.35329C298.095 7.47911 297.318 6.79919 296.541 6.79919Z" fill="url(#paint7_linear)"/>
<path opacity="0.7" d="M316.064 29.0421C315.578 29.0421 315.19 29.4306 315.19 29.9163V125.687H316.938V29.9163C316.938 29.4306 316.55 29.0421 316.064 29.0421Z" fill="url(#paint8_linear)"/>
<path opacity="0.7" d="M251.861 218.642C251.375 218.642 250.986 219.03 250.986 219.516V315.287H252.735V219.516C252.735 219.03 252.346 218.642 251.861 218.642Z" fill="url(#paint9_linear)"/>
<path opacity="0.7" d="M190.571 199.216C189.697 199.216 189.017 199.896 189.017 200.77V376.771H192.125V200.77C192.125 199.896 191.445 199.216 190.571 199.216Z" fill="url(#paint10_linear)"/>
<path opacity="0.3" d="M318.881 150.553C318.881 153.273 316.647 155.507 313.927 155.507C311.208 155.507 308.974 153.273 308.974 150.553C308.974 147.833 311.208 145.599 313.927 145.599C316.647 145.599 318.881 147.833 318.881 150.553Z" fill="#FFDA44"/>
<path opacity="0.3" d="M317.133 150.553C317.133 152.301 315.676 153.758 313.928 153.758C312.179 153.758 310.722 152.301 310.722 150.553C310.722 148.805 312.179 147.348 313.928 147.348C315.676 147.445 317.133 148.805 317.133 150.553Z" fill="#FFDA44"/>
<path d="M316.064 150.553C316.064 151.719 315.093 152.69 313.927 152.69C312.762 152.69 311.791 151.719 311.791 150.553C311.791 149.387 312.762 148.416 313.927 148.416C315.093 148.513 316.064 149.387 316.064 150.553Z" fill="#FFDA44"/>
<path opacity="0.3" d="M202.032 114.712C202.032 117.431 199.798 119.665 197.079 119.665C194.359 119.665 192.125 117.431 192.125 114.712C192.125 111.992 194.359 109.758 197.079 109.758C199.895 109.661 202.032 111.895 202.032 114.712Z" fill="#FFDA44"/>
<path opacity="0.3" d="M200.284 114.712C200.284 116.46 198.827 117.917 197.079 117.917C195.33 117.917 193.874 116.46 193.874 114.712C193.874 112.963 195.33 111.506 197.079 111.506C198.827 111.506 200.284 112.963 200.284 114.712Z" fill="#FFDA44"/>
<path d="M199.216 114.712C199.216 115.877 198.244 116.849 197.079 116.849C195.913 116.849 194.942 115.877 194.942 114.712C194.942 113.546 195.913 112.575 197.079 112.575C198.244 112.575 199.216 113.546 199.216 114.712Z" fill="#FFDA44"/>
<path opacity="0.3" d="M329.566 16.7065C329.566 17.9693 328.594 18.9406 327.332 18.9406C326.069 18.9406 325.098 17.8721 325.098 16.7065C325.098 15.4438 326.069 14.4725 327.332 14.4725C328.497 14.4725 329.566 15.4438 329.566 16.7065Z" fill="#FFDA44"/>
<path opacity="0.3" d="M328.691 16.7065C328.691 17.4835 328.011 18.1634 327.234 18.1634C326.457 18.1634 325.777 17.4835 325.777 16.7065C325.777 15.9294 326.457 15.2495 327.234 15.2495C328.011 15.2495 328.691 15.9294 328.691 16.7065Z" fill="#FFDA44"/>
<path d="M328.206 16.7065C328.206 17.2893 327.817 17.6778 327.234 17.6778C326.652 17.6778 326.263 17.2893 326.263 16.7065C326.263 16.1238 326.749 15.7352 327.234 15.7352C327.817 15.7352 328.206 16.1238 328.206 16.7065Z" fill="#FFDA44"/>
<path opacity="0.3" d="M232.823 97.908C232.823 99.1707 231.852 100.142 230.589 100.142C229.326 100.142 228.355 99.0736 228.355 97.908C228.355 96.6453 229.326 95.674 230.589 95.674C231.852 95.5769 232.823 96.6453 232.823 97.908Z" fill="#FFDA44"/>
<path opacity="0.3" d="M232.046 97.908C232.046 98.6851 231.366 99.365 230.589 99.365C229.812 99.365 229.132 98.6851 229.132 97.908C229.132 97.131 229.812 96.451 230.589 96.451C231.366 96.451 232.046 97.0338 232.046 97.908Z" fill="#FFDA44"/>
<path d="M231.56 97.908C231.56 98.4907 231.172 98.8793 230.589 98.8793C230.006 98.8793 229.618 98.4907 229.618 97.908C229.618 97.3252 230.006 96.9366 230.589 96.9366C231.075 96.9366 231.56 97.3252 231.56 97.908Z" fill="#FFDA44"/>
<path opacity="0.3" d="M276.921 54.3933C276.921 55.656 275.949 56.6273 274.687 56.6273C273.424 56.6273 272.453 55.5589 272.453 54.3933C272.453 53.1306 273.521 52.1593 274.687 52.1593C275.949 52.1593 276.921 53.2277 276.921 54.3933Z" fill="#FFDA44"/>
<path opacity="0.3" d="M276.143 54.3932C276.143 55.1703 275.464 55.8502 274.686 55.8502C273.909 55.8502 273.229 55.1703 273.229 54.3932C273.229 53.6162 273.909 52.9363 274.686 52.9363C275.464 52.9363 276.143 53.6162 276.143 54.3932Z" fill="#FFDA44"/>
<path d="M275.658 54.3933C275.658 54.9761 275.269 55.3646 274.687 55.3646C274.104 55.3646 273.715 54.9761 273.715 54.3933C273.715 53.8105 274.201 53.422 274.687 53.422C275.172 53.422 275.658 53.9077 275.658 54.3933Z" fill="#FFDA44"/>
<path opacity="0.3" d="M168.716 292.947C168.716 295.667 166.482 297.901 163.763 297.901C161.043 297.901 158.809 295.667 158.809 292.947C158.809 290.227 161.043 287.993 163.763 287.993C166.482 287.993 168.716 290.227 168.716 292.947Z" fill="#FFDA44"/>
<path opacity="0.3" d="M166.968 292.947C166.968 294.695 165.511 296.152 163.763 296.152C162.015 296.152 160.558 294.695 160.558 292.947C160.558 291.199 162.015 289.742 163.763 289.742C165.511 289.742 166.968 291.199 166.968 292.947Z" fill="#FFDA44"/>
<path d="M165.9 292.947C165.9 294.113 164.928 295.084 163.763 295.084C162.597 295.084 161.626 294.113 161.626 292.947C161.626 291.781 162.597 290.81 163.763 290.81C164.928 290.81 165.9 291.781 165.9 292.947Z" fill="#FFDA44"/>
<path opacity="0.3" d="M182.218 24.8656C182.218 26.3225 181.052 27.4881 179.595 27.4881C178.138 27.4881 176.973 26.3225 176.973 24.8656C176.973 23.4086 178.138 22.243 179.595 22.243C181.052 22.243 182.218 23.4086 182.218 24.8656Z" fill="#FFDA44"/>
<path opacity="0.3" d="M181.246 24.8656C181.246 25.7398 180.469 26.5168 179.595 26.5168C178.721 26.5168 177.944 25.7398 177.944 24.8656C177.944 23.9914 178.721 23.2144 179.595 23.2144C180.566 23.1173 181.246 23.8943 181.246 24.8656Z" fill="#FFDA44"/>
<path d="M180.761 24.8656C180.761 25.4484 180.275 25.934 179.692 25.934C179.11 25.934 178.624 25.4484 178.624 24.8656C178.624 24.2828 179.11 23.7972 179.692 23.7972C180.178 23.7 180.761 24.1857 180.761 24.8656Z" fill="#FFDA44"/>
<path opacity="0.3" d="M324.126 296.152C324.126 297.609 322.96 298.775 321.503 298.775C320.046 298.775 318.881 297.609 318.881 296.152C318.881 294.695 320.046 293.53 321.503 293.53C322.96 293.53 324.126 294.695 324.126 296.152Z" fill="#FFDA44"/>
<path opacity="0.3" d="M323.155 296.152C323.155 297.027 322.377 297.804 321.503 297.804C320.629 297.804 319.852 297.027 319.852 296.152C319.852 295.278 320.629 294.501 321.503 294.501C322.377 294.501 323.155 295.278 323.155 296.152Z" fill="#FFDA44"/>
<path d="M322.572 296.152C322.572 296.735 322.086 297.221 321.504 297.221C320.921 297.221 320.435 296.735 320.435 296.152C320.435 295.57 320.921 295.084 321.504 295.084C322.086 295.084 322.572 295.57 322.572 296.152Z" fill="#FFDA44"/>
<path opacity="0.3" d="M351.031 281C351.031 282.457 349.866 283.623 348.409 283.623C346.952 283.623 345.786 282.457 345.786 281C345.786 279.543 346.952 278.377 348.409 278.377C349.866 278.475 351.031 279.64 351.031 281Z" fill="#FFDA44"/>
<path opacity="0.3" d="M350.06 281C350.06 281.874 349.283 282.651 348.409 282.651C347.534 282.651 346.757 281.874 346.757 281C346.757 280.126 347.534 279.349 348.409 279.349C349.38 279.349 350.06 280.126 350.06 281Z" fill="#FFDA44"/>
<path d="M349.574 281C349.574 281.583 349.089 282.068 348.506 282.068C347.923 282.068 347.438 281.583 347.438 281C347.438 280.417 347.923 279.932 348.506 279.932C349.089 279.932 349.574 280.417 349.574 281Z" fill="#FFDA44"/>
<path opacity="0.3" d="M255.552 347.438C255.552 348.895 254.386 350.06 252.929 350.06C251.472 350.06 250.307 348.895 250.307 347.438C250.307 345.981 251.472 344.815 252.929 344.815C254.386 344.815 255.552 345.981 255.552 347.438Z" fill="#FFDA44"/>
<path opacity="0.3" d="M254.58 347.438C254.58 348.312 253.803 349.089 252.929 349.089C252.055 349.089 251.278 348.312 251.278 347.438C251.278 346.563 252.055 345.786 252.929 345.786C253.803 345.786 254.58 346.563 254.58 347.438Z" fill="#FFDA44"/>
<path d="M253.998 347.438C253.998 348.02 253.512 348.506 252.929 348.506C252.347 348.506 251.861 348.02 251.861 347.438C251.861 346.855 252.347 346.369 252.929 346.369C253.512 346.369 253.998 346.855 253.998 347.438Z" fill="#FFDA44"/>
<path opacity="0.3" d="M288.285 211.843C288.285 213.3 287.119 214.465 285.662 214.465C284.205 214.465 283.04 213.3 283.04 211.843C283.04 210.386 284.205 209.22 285.662 209.22C287.119 209.317 288.285 210.483 288.285 211.843Z" fill="#FFDA44"/>
<path opacity="0.3" d="M287.313 211.843C287.313 212.717 286.536 213.494 285.662 213.494C284.788 213.494 284.011 212.717 284.011 211.843C284.011 210.969 284.788 210.192 285.662 210.192C286.633 210.192 287.313 210.969 287.313 211.843Z" fill="#FFDA44"/>
<path d="M285.662 212.911C286.252 212.911 286.731 212.433 286.731 211.843C286.731 211.253 286.252 210.774 285.662 210.774C285.072 210.774 284.594 211.253 284.594 211.843C284.594 212.433 285.072 212.911 285.662 212.911Z" fill="#FFDA44"/>
<path opacity="0.14" d="M379.685 217.282C454.281 260.408 454.281 330.245 379.685 373.372C305.088 416.498 184.063 416.498 109.369 373.372C34.7727 330.245 34.7727 260.408 109.369 217.282C184.063 174.156 305.088 174.156 379.685 217.282Z" fill="url(#paint11_linear)"/>
<path opacity="0.14" d="M379.685 217.282C305.088 174.156 184.063 174.156 109.369 217.282C34.7727 260.408 34.7727 330.245 109.369 373.372C183.966 416.498 304.991 416.498 379.685 373.372C454.379 330.245 454.379 260.408 379.685 217.282ZM378.325 372.497C304.505 415.138 184.743 415.138 110.826 372.497C37.0067 329.857 37.0067 260.7 110.826 218.059C184.646 175.419 304.408 175.419 378.325 218.059C452.145 260.7 452.145 329.857 378.325 372.497Z" fill="url(#paint12_linear)"/>
<g opacity="0.5">
<path opacity="0.14" d="M359.579 123.065C423.103 159.78 423.103 219.225 359.579 255.843C296.055 292.558 193.097 292.558 129.573 255.843C66.0493 219.127 66.0493 159.683 129.573 123.065C193.097 86.4465 296.055 86.4465 359.579 123.065Z" fill="url(#paint13_linear)"/>
</g>
<path opacity="0.55" d="M225.053 316.064V380.462C194.748 377.84 165.609 369.681 142.2 356.276C130.738 349.672 121.511 342.192 114.615 334.325V269.927C121.511 277.892 130.738 285.274 142.2 291.879C165.511 305.283 194.748 313.345 225.053 316.064Z" fill="#51FFFF"/>
<path opacity="0.55" d="M384.93 264.682V314.219C377.645 324.029 367.058 333.256 353.168 341.318C345.495 345.786 337.142 349.672 328.303 352.877V303.34C337.142 300.038 345.398 296.25 353.168 291.782C367.058 283.817 377.645 274.589 384.93 264.682Z" fill="#51FFFF"/>
<path opacity="0.55" d="M148.902 302.175C145.599 300.523 142.297 298.872 139.189 297.027C132.292 293.044 126.173 288.77 120.734 284.205V331.897C127.145 338.89 135.401 345.301 145.308 350.934C146.474 351.614 147.736 352.294 148.902 352.974V302.175Z" fill="#51FFFF"/>
<path opacity="0.2" d="M152.884 105.97V152.593C144.822 155.798 137.246 159.489 130.059 163.666C112.381 173.865 99.4623 185.812 91.4004 198.536V151.913C99.4623 139.189 112.284 127.242 130.059 116.946C137.246 112.866 144.822 109.175 152.884 105.97Z" fill="#51FFFF"/>
<path opacity="0.2" d="M408.144 159.586V206.209C400.762 190.571 386.484 175.904 365.309 163.666C360.259 160.752 355.014 158.129 349.574 155.604V108.981C355.014 111.409 360.356 114.129 365.309 117.043C386.581 129.281 400.859 144.045 408.144 159.586Z" fill="#51FFFF"/>
<path d="M21.5631 371.72C21.5631 378.617 16.7065 386.97 10.7815 390.467C4.85655 393.866 0 391.049 0 384.153C0 377.257 4.85655 368.904 10.7815 365.504C16.8037 362.007 21.5631 364.824 21.5631 371.72Z" fill="#2580D3"/>
<path opacity="0.7" d="M21.5631 332.091C21.5631 338.987 16.7065 347.34 10.7815 350.837C4.85655 354.237 0 351.517 0 344.621C0 337.724 4.85655 329.371 10.7815 325.874C16.8037 322.475 21.5631 325.195 21.5631 332.091Z" fill="#2580D3"/>
<path opacity="0.5" d="M21.5631 292.559C21.5631 299.455 16.7065 307.808 10.7815 311.305C4.85655 314.704 0 311.888 0 304.991C0 298.095 4.85655 289.742 10.7815 286.245C16.8037 282.845 21.5631 285.662 21.5631 292.559Z" fill="#2580D3"/>
<path opacity="0.3" d="M21.5631 252.929C21.5631 259.825 16.7065 268.179 10.7815 271.675C4.85655 275.075 0 272.258 0 265.362C0 258.466 4.85655 250.112 10.7815 246.616C16.8037 243.216 21.5631 246.033 21.5631 252.929Z" fill="#2580D3"/>
<path opacity="0.2" d="M21.5631 213.3C21.5631 220.196 16.7065 228.549 10.7815 232.046C4.85655 235.446 0 232.629 0 225.732C0 218.836 4.85655 210.483 10.7815 206.986C16.7065 203.489 21.5631 206.403 21.5631 213.3Z" fill="#2580D3"/>
<path d="M473.805 225.635L466.229 227.675V231.269L473.805 229.229L481.284 240.011V236.417L473.805 225.635Z" fill="#2580D3"/>
<path opacity="0.7" d="M473.805 241.565L466.229 243.605V247.198L473.805 245.256L481.284 255.94V252.346L473.805 241.565Z" fill="#2580D3"/>
<path opacity="0.5" d="M473.805 257.494L466.229 259.534V263.128L473.805 261.185L481.284 271.87V268.276L473.805 257.494Z" fill="#2580D3"/>
<path opacity="0.3" d="M473.805 273.424L466.229 275.464V279.155L473.805 277.115L481.284 287.799V284.205L473.805 273.424Z" fill="#2580D3"/>
<path opacity="0.2" d="M473.805 289.353L466.229 291.393V295.084L473.805 293.044L481.284 303.826V300.135L473.805 289.353Z" fill="#2580D3"/>
</g>
<path d="M206.607 252.846L166.825 265.568L168.925 272.137L208.708 259.415L206.607 252.846Z" fill="#0A208F"/>
<path d="M228.258 254.386C228.258 261.574 222.43 267.402 215.243 267.402C208.055 267.402 202.227 261.574 202.227 254.386C202.227 247.198 208.055 241.37 215.243 241.37C222.43 241.37 228.258 247.198 228.258 254.386Z" fill="url(#paint14_radial)"/>
<path d="M251.861 344.135C251.861 344.135 257.106 344.038 262.157 341.415C267.305 338.793 273.715 330.342 278.766 322.378C293.044 299.843 293.919 279.834 288.868 266.333C283.817 252.832 270.024 245.547 251.764 245.547C233.503 245.547 219.711 252.929 214.66 266.333C209.609 279.834 210.483 299.843 224.761 322.378C229.812 330.44 236.223 338.793 241.371 341.415C246.616 344.038 251.861 344.135 251.861 344.135Z" fill="url(#paint15_radial)"/>
<path opacity="0.3" d="M283.428 257.203C276.532 249.529 265.459 245.45 251.861 245.45C239.525 245.45 229.229 248.85 222.236 255.26C230.103 263.808 241.273 269.15 253.803 269.15C265.265 269.15 275.658 264.585 283.428 257.203Z" fill="#0A208F"/>
<path d="M296.541 211.163C296.541 234.766 277.406 253.998 253.706 253.998C230.104 253.998 210.872 234.863 210.872 211.163C210.872 187.56 230.006 168.328 253.706 168.328C277.406 168.328 296.541 187.56 296.541 211.163Z" fill="url(#paint16_radial)"/>
<path d="M296.541 211.163C296.541 234.766 277.406 253.998 253.706 253.998C230.104 253.998 210.872 234.863 210.872 211.163C210.872 187.56 230.006 168.328 253.706 168.328C277.406 168.328 296.541 187.56 296.541 211.163Z" fill="url(#paint17_linear)"/>
<path d="M275.658 227.384C274.881 239.428 263.905 242.925 263.905 242.925C249.53 244.284 234.28 241.759 223.11 235.348C219.711 233.406 216.991 231.172 214.854 228.841C212.426 223.401 210.969 217.476 210.969 211.066C210.969 206.209 211.746 201.644 213.3 197.273C215.534 200.284 218.836 203.101 223.11 205.626C234.183 212.037 249.53 214.562 263.905 213.203C263.808 213.3 276.629 212.328 275.658 227.384Z" fill="#0A208F"/>
<path d="M275.658 227.384C274.881 239.428 263.905 242.925 263.905 242.925C249.53 244.284 234.28 241.759 223.11 235.348C219.711 233.406 216.991 231.172 214.854 228.841C212.426 223.401 210.969 217.476 210.969 211.066C210.969 206.209 211.746 201.644 213.3 197.273C215.534 200.284 218.836 203.101 223.11 205.626C234.183 212.037 249.53 214.562 263.905 213.203C263.808 213.3 276.629 212.328 275.658 227.384Z" fill="url(#paint18_linear)"/>
<path opacity="0.1" d="M223.11 205.723C218.836 203.295 215.534 200.381 213.3 197.37C211.843 201.741 210.969 206.306 210.969 211.163C210.969 217.476 212.329 223.498 214.854 228.938C216.991 231.269 219.711 233.406 223.11 235.445C224.567 236.32 226.121 237.097 227.772 237.777C228.064 230.783 229.618 220.002 235.154 210.774C230.783 209.511 226.704 207.86 223.11 205.723Z" fill="white"/>
<path d="M176.876 275.561C170.562 279.154 146.182 287.411 139.869 283.817C133.555 280.223 147.833 266.042 154.147 262.448C160.461 258.854 170.659 258.854 176.973 262.448C183.189 266.042 183.189 271.87 176.876 275.561Z" fill="url(#paint19_radial)"/>
<path d="M288.965 269.344C288.965 275.949 284.4 283.914 278.669 287.119C273.035 290.422 268.373 287.702 268.373 281.194C268.373 274.686 272.938 266.625 278.669 263.419C284.303 260.117 288.965 262.739 288.965 269.344Z" fill="#0A208F"/>
<path d="M293.768 287.603L287.404 290.262L301.337 323.601L307.7 320.942L293.768 287.603Z" fill="#0A208F"/>
<path d="M313.248 322.086C313.248 329.371 308.197 354.625 301.883 358.316C295.57 361.91 290.519 342.581 290.519 335.296C290.519 328.011 295.667 319.172 301.883 315.579C308.197 311.888 313.248 314.801 313.248 322.086Z" fill="url(#paint20_radial)"/>
<path d="M300.718 281.097C300.718 288.285 294.89 294.113 287.702 294.113C280.514 294.113 274.687 288.285 274.687 281.097C274.687 273.909 280.514 268.082 287.702 268.082C294.89 268.082 300.718 273.909 300.718 281.097Z" fill="url(#paint21_radial)"/>
<path opacity="0.3" d="M244.576 229.52C244.576 232.629 242.342 233.891 239.719 232.337C237 230.783 234.863 226.995 234.863 223.887C234.863 220.779 237.097 219.516 239.719 221.07C242.342 222.527 244.576 226.315 244.576 229.52Z" fill="#07B3FA"/>
<path opacity="0.3" d="M243.507 228.841C243.507 231.269 241.759 232.24 239.719 231.075C237.582 229.812 235.931 226.898 235.931 224.47C235.931 222.041 237.68 221.07 239.719 222.236C241.759 223.498 243.507 226.412 243.507 228.841Z" fill="#07B3FA"/>
<path opacity="0.3" d="M243.022 228.549C243.022 230.686 241.565 231.56 239.719 230.492C237.874 229.423 236.417 226.898 236.417 224.761C236.417 222.624 237.874 221.75 239.719 222.818C241.468 223.887 243.022 226.412 243.022 228.549Z" fill="#07B3FA"/>
<path d="M242.536 228.258C242.536 230.006 241.273 230.783 239.719 229.909C238.165 229.035 236.902 226.801 236.902 225.053C236.902 223.304 238.165 222.527 239.719 223.401C241.273 224.275 242.536 226.509 242.536 228.258Z" fill="#07B3FA"/>
<path d="M241.759 227.869C241.759 229.132 240.885 229.715 239.719 229.035C238.554 228.355 237.68 226.801 237.68 225.441C237.68 224.081 238.554 223.596 239.719 224.275C240.788 224.955 241.759 226.509 241.759 227.869Z" fill="#07B3FA"/>
<path d="M241.176 227.481C241.176 228.452 240.496 228.841 239.719 228.355C238.942 227.869 238.262 226.801 238.262 225.83C238.262 224.858 238.942 224.47 239.719 224.955C240.496 225.441 241.176 226.607 241.176 227.481Z" fill="#07B3FA"/>
<path opacity="0.3" d="M225.052 221.07C225.052 224.178 222.818 225.441 220.196 223.887C217.476 222.333 215.339 218.545 215.339 215.436C215.339 212.328 217.573 211.066 220.196 212.62C222.818 214.174 225.052 217.962 225.052 221.07Z" fill="#07B3FA"/>
<path opacity="0.3" d="M223.984 220.487C223.984 222.916 222.236 223.887 220.196 222.721C218.059 221.459 216.408 218.545 216.408 216.116C216.408 213.688 218.156 212.717 220.196 213.882C222.236 215.145 223.984 218.059 223.984 220.487Z" fill="#07B3FA"/>
<path opacity="0.3" d="M223.401 220.196C223.401 222.333 221.944 223.207 220.099 222.138C218.253 221.07 216.796 218.545 216.796 216.408C216.796 214.271 218.253 213.397 220.099 214.465C221.944 215.534 223.401 218.059 223.401 220.196Z" fill="#07B3FA"/>
<path d="M222.916 219.904C222.916 221.653 221.653 222.43 220.099 221.556C218.545 220.681 217.282 218.447 217.282 216.699C217.282 214.951 218.545 214.174 220.099 215.048C221.653 215.922 222.916 218.156 222.916 219.904Z" fill="#07B3FA"/>
<path d="M222.139 219.516C222.139 220.779 221.264 221.362 220.099 220.682C218.933 220.002 218.059 218.448 218.059 217.088C218.059 215.825 218.933 215.242 220.099 215.922C221.264 216.602 222.139 218.156 222.139 219.516Z" fill="#07B3FA"/>
<path d="M221.556 219.127C221.556 220.099 220.876 220.487 220.099 220.002C219.322 219.516 218.642 218.448 218.642 217.476C218.642 216.505 219.322 216.116 220.099 216.602C220.973 217.088 221.556 218.156 221.556 219.127Z" fill="#07B3FA"/>
<defs>
<radialGradient id="paint0_radial" cx="0" cy="0" r="1" gradientUnits="userSpaceOnUse" gradientTransform="translate(239.83 357.095) scale(201.922)">
<stop stop-color="#328DE0"/>
<stop offset="1" stop-color="#172D9C"/>
</radialGradient>
<linearGradient id="paint1_linear" x1="406.851" y1="290.591" x2="53.9816" y2="859.385" gradientUnits="userSpaceOnUse">
<stop stop-color="#328DE0"/>
<stop offset="1" stop-color="#172D9C"/>
</linearGradient>
<linearGradient id="paint2_linear" x1="411.334" y1="284.136" x2="102.134" y2="815.645" gradientUnits="userSpaceOnUse">
<stop stop-color="#004EA1"/>
<stop offset="1" stop-color="#00005D"/>
</linearGradient>
<linearGradient id="paint3_linear" x1="176.821" y1="244.567" x2="176.821" y2="95.7703" gradientUnits="userSpaceOnUse">
<stop stop-opacity="0"/>
<stop offset="1" stop-color="#48D8F5"/>
</linearGradient>
<linearGradient id="paint4_linear" x1="334.642" y1="314.688" x2="334.642" y2="96.4821" gradientUnits="userSpaceOnUse">
<stop stop-opacity="0"/>
<stop offset="1" stop-color="#48D8F5"/>
</linearGradient>
<linearGradient id="paint5_linear" x1="310.276" y1="346.929" x2="310.276" y2="159.613" gradientUnits="userSpaceOnUse">
<stop stop-opacity="0"/>
<stop offset="1" stop-color="#48D8F5"/>
</linearGradient>
<linearGradient id="paint6_linear" x1="160.747" y1="188.981" x2="160.747" y2="1.66516" gradientUnits="userSpaceOnUse">
<stop stop-opacity="0"/>
<stop offset="1" stop-color="#48D8F5"/>
</linearGradient>
<linearGradient id="paint7_linear" x1="296.492" y1="183.863" x2="296.492" y2="-4.6273" gradientUnits="userSpaceOnUse">
<stop stop-opacity="0"/>
<stop offset="1" stop-color="#48D8F5"/>
</linearGradient>
<linearGradient id="paint8_linear" x1="316.048" y1="125.372" x2="316.048" y2="22.8069" gradientUnits="userSpaceOnUse">
<stop stop-opacity="0"/>
<stop offset="1" stop-color="#48D8F5"/>
</linearGradient>
<linearGradient id="paint9_linear" x1="251.907" y1="315.007" x2="251.907" y2="212.442" gradientUnits="userSpaceOnUse">
<stop/>
<stop offset="1" stop-color="#48D8F5"/>
</linearGradient>
<linearGradient id="paint10_linear" x1="190.573" y1="376.276" x2="190.573" y2="187.786" gradientUnits="userSpaceOnUse">
<stop stop-opacity="0"/>
<stop offset="1" stop-color="#48D8F5"/>
</linearGradient>
<linearGradient id="paint11_linear" x1="244.579" y1="401.301" x2="244.579" y2="149.433" gradientUnits="userSpaceOnUse">
<stop stop-color="#1ED6FE"/>
<stop offset="1" stop-opacity="0"/>
</linearGradient>
<linearGradient id="paint12_linear" x1="244.579" y1="398.786" x2="244.579" y2="161.037" gradientUnits="userSpaceOnUse">
<stop stop-color="white"/>
<stop offset="1"/>
</linearGradient>
<linearGradient id="paint13_linear" x1="244.579" y1="279.703" x2="244.579" y2="65.3643" gradientUnits="userSpaceOnUse">
<stop stop-color="#1ED6FE"/>
<stop offset="1"/>
</linearGradient>
<radialGradient id="paint14_radial" cx="0" cy="0" r="1" gradientUnits="userSpaceOnUse" gradientTransform="translate(211.777 249.65) scale(27.5683)">
<stop stop-color="#5ABEFF"/>
<stop offset="1" stop-color="#243AA9"/>
</radialGradient>
<radialGradient id="paint15_radial" cx="0" cy="0" r="1" gradientUnits="userSpaceOnUse" gradientTransform="translate(253.735 271.235) scale(80.2759)">
<stop stop-color="#5ABEFF"/>
<stop offset="1" stop-color="#243AA9"/>
</radialGradient>
<radialGradient id="paint16_radial" cx="0" cy="0" r="1" gradientUnits="userSpaceOnUse" gradientTransform="translate(242.426 195.485) scale(90.5253)">
<stop stop-color="#5ABEFF"/>
<stop offset="1" stop-color="#243AA9"/>
</radialGradient>
<linearGradient id="paint17_linear" x1="224.228" y1="286.798" x2="253.677" y2="211.411" gradientUnits="userSpaceOnUse">
<stop stop-color="white"/>
<stop offset="1" stop-color="#0085FF" stop-opacity="0"/>
</linearGradient>
<linearGradient id="paint18_linear" x1="239.046" y1="239.598" x2="245.446" y2="206.478" gradientUnits="userSpaceOnUse">
<stop stop-color="white"/>
<stop offset="1" stop-color="#0A208F"/>
</linearGradient>
<radialGradient id="paint19_radial" cx="0" cy="0" r="1" gradientUnits="userSpaceOnUse" gradientTransform="translate(166.501 263.693) scale(61.1353)">
<stop stop-color="#40A4FF"/>
<stop offset="0.5053" stop-color="#2767CB"/>
<stop offset="1" stop-color="#0A208F"/>
</radialGradient>
<radialGradient id="paint20_radial" cx="0" cy="0" r="1" gradientUnits="userSpaceOnUse" gradientTransform="translate(307.542 323.06) scale(83.1266 83.1267)">
<stop stop-color="#40A4FF"/>
<stop offset="1" stop-color="#0A208F"/>
</radialGradient>
<radialGradient id="paint21_radial" cx="0" cy="0" r="1" gradientUnits="userSpaceOnUse" gradientTransform="translate(284.265 276.295) scale(27.5667)">
<stop stop-color="#5ABEFF"/>
<stop offset="1" stop-color="#243AA9"/>
</radialGradient>
<clipPath id="clip0">
<rect width="481.381" height="562.486" fill="white"/>
</clipPath>
</defs>
</svg>
